solid cylinder_16
  facet normal 0.980785 0.195090 -0.000000
    outer loop
      vertex 1.000000 0.000000 -1.000000
      vertex 0.923880 0.382683 -1.000000
      vertex 1.000000 0.000000 1.000000
    endloop
  endfacet
  facet normal 0.980785 0.195090 -0.000000
    outer loop
      vertex 0.923880 0.382683 -1.000000
      vertex 0.923880 0.382683 1.000000
      vertex 1.000000 0.000000 1.000000
    endloop
  endfacet
  facet normal 0.000000 0.000000 -1.000000
    outer loop
      vertex 1.000000 0.000000 -1.000000
      vertex 0.000000 0.000000 -1.000000
      vertex 0.923880 0.382683 -1.000000
    endloop
  endfacet
  facet normal 0.000000 0.000000 1.000000
    outer loop
      vertex 1.000000 0.000000 1.000000
      vertex 0.923880 0.382683 1.000000
      vertex 0.000000 0.000000 1.000000
    endloop
  endfacet
  facet normal 0.831470 0.555570 -0.000000
    outer loop
      vertex 0.923880 0.382683 -1.000000
      vertex 0.707107 0.707107 -1.000000
      vertex 0.923880 0.382683 1.000000
    endloop
  endfacet
  facet normal 0.831470 0.555570 -0.000000
    outer loop
      vertex 0.707107 0.707107 -1.000000
      vertex 0.707107 0.707107 1.000000
      vertex 0.923880 0.382683 1.000000
    endloop
  endfacet
  facet normal -0.000000 0.000000 -1.000000
    outer loop
      vertex 0.923880 0.382683 -1.000000
      vertex 0.000000 0.000000 -1.000000
      vertex 0.707107 0.707107 -1.000000
    endloop
  endfacet
  facet normal 0.000000 0.000000 1.000000
    outer loop
      vertex 0.923880 0.382683 1.000000
      vertex 0.707107 0.707107 1.000000
      vertex 0.000000 0.000000 1.000000
    endloop
  endfacet
  facet normal 0.555570 0.831470 -0.000000
    outer loop
      vertex 0.707107 0.707107 -1.000000
      vertex 0.382683 0.923880 -1.000000
      vertex 0.707107 0.707107 1.000000
    endloop
  endfacet
  facet normal 0.555570 0.831470 -0.000000
    outer loop
      vertex 0.382683 0.923880 -1.000000
      vertex 0.382683 0.923880 1.000000
      vertex 0.707107 0.707107 1.000000
    endloop
  endfacet
  facet normal -0.000000 0.000000 -1.000000
    outer loop
      vertex 0.707107 0.707107 -1.000000
      vertex 0.000000 0.000000 -1.000000
      vertex 0.382683 0.923880 -1.000000
    endloop
  endfacet
  facet normal 0.000000 0.000000 1.000000
    outer loop
      vertex 0.707107 0.707107 1.000000
      vertex 0.382683 0.923880 1.000000
      vertex 0.000000 0.000000 1.000000
    endloop
  endfacet
  facet normal 0.195090 0.980785 -0.000000
    outer loop
      vertex 0.382683 0.923880 -1.000000
      vertex 0.000000 1.000000 -1.000000
      vertex 0.382683 0.923880 1.000000
    endloop
  endfacet
  facet normal 0.195090 0.980785 -0.000000
    outer loop
      vertex 0.000000 1.000000 -1.000000
      vertex 0.000000 1.000000 1.000000
      vertex 0.382683 0.923880 1.000000
    endloop
  endfacet
  facet normal -0.000000 0.000000 -1.000000
    outer loop
      vertex 0.382683 0.923880 -1.000000
      vertex 0.000000 0.000000 -1.000000
      vertex 0.000000 1.000000 -1.000000
    endloop
  endfacet
  facet normal 0.000000 0.000000 1.000000
    outer loop
      vertex 0.382683 0.923880 1.000000
      vertex 0.000000 1.000000 1.000000
      vertex 0.000000 0.000000 1.000000
    endloop
  endfacet
  facet normal -0.195090 0.980785 0.000000
    outer loop
      vertex 0.000000 1.000000 -1.000000
      vertex -0.382683 0.923880 -1.000000
      vertex 0.000000 1.000000 1.000000
    endloop
  endfacet
  facet normal -0.195090 0.980785 0.000000
    outer loop
      vertex -0.382683 0.923880 -1.000000
      vertex -0.382683 0.923880 1.000000
      vertex 0.000000 1.000000 1.000000
    endloop
  endfacet
  facet normal 0.000000 0.000000 -1.000000
    outer loop
      vertex 0.000000 1.000000 -1.000000
      vertex 0.000000 0.000000 -1.000000
      vertex -0.382683 0.923880 -1.000000
    endloop
  endfacet
  facet normal 0.000000 0.000000 1.000000
    outer loop
      vertex 0.000000 1.000000 1.000000
      vertex -0.382683 0.923880 1.000000
      vertex 0.000000 0.000000 1.000000
    endloop
  endfacet
  facet normal -0.555570 0.831470 0.000000
    outer loop
      vertex -0.382683 0.923880 -1.000000
      vertex -0.707107 0.707107 -1.000000
      vertex -0.382683 0.923880 1.000000
    endloop
  endfacet
  facet normal -0.555570 0.831470 0.000000
    outer loop
      vertex -0.707107 0.707107 -1.000000
      vertex -0.707107 0.707107 1.000000
      vertex -0.382683 0.923880 1.000000
    endloop
  endfacet
  facet normal 0.000000 -0.000000 -1.000000
    outer loop
      vertex -0.382683 0.923880 -1.000000
      vertex 0.000000 0.000000 -1.000000
      vertex -0.707107 0.707107 -1.000000
    endloop
  endfacet
  facet normal 0.000000 0.000000 1.000000
    outer loop
      vertex -0.382683 0.923880 1.000000
      vertex -0.707107 0.707107 1.000000
      vertex 0.000000 0.000000 1.000000
    endloop
  endfacet
  facet normal -0.831470 0.555570 0.000000
    outer loop
      vertex -0.707107 0.707107 -1.000000
      vertex -0.923880 0.382683 -1.000000
      vertex -0.707107 0.707107 1.000000
    endloop
  endfacet
  facet normal -0.831470 0.555570 0.000000
    outer loop
      vertex -0.923880 0.382683 -1.000000
      vertex -0.923880 0.382683 1.000000
      vertex -0.707107 0.707107 1.000000
    endloop
  endfacet
  facet normal 0.000000 -0.000000 -1.000000
    outer loop
      vertex -0.707107 0.707107 -1.000000
      vertex 0.000000 0.000000 -1.000000
      vertex -0.923880 0.382683 -1.000000
    endloop
  endfacet
  facet normal 0.000000 0.000000 1.000000
    outer loop
      vertex -0.707107 0.707107 1.000000
      vertex -0.923880 0.382683 1.000000
      vertex 0.000000 0.000000 1.000000
    endloop
  endfacet
  facet normal -0.980785 0.195090 0.000000
    outer loop
      vertex -0.923880 0.382683 -1.000000
      vertex -1.000000 0.000000 -1.000000
      vertex -0.923880 0.382683 1.000000
    endloop
  endfacet
  facet normal -0.980785 0.195090 0.000000
    outer loop
      vertex -1.000000 0.000000 -1.000000
      vertex -1.000000 0.000000 1.000000
      vertex -0.923880 0.382683 1.000000
    endloop
  endfacet
  facet normal 0.000000 -0.000000 -1.000000
    outer loop
      vertex -0.923880 0.382683 -1.000000
      vertex 0.000000 0.000000 -1.000000
      vertex -1.000000 0.000000 -1.000000
    endloop
  endfacet
  facet normal 0.000000 0.000000 1.000000
    outer loop
      vertex -0.923880 0.382683 1.000000
      vertex -1.000000 0.000000 1.000000
      vertex 0.000000 0.000000 1.000000
    endloop
  endfacet
  facet normal -0.980785 -0.195090 0.000000
    outer loop
      vertex -1.000000 0.000000 -1.000000
      vertex -0.923880 -0.382683 -1.000000
      vertex -1.000000 0.000000 1.000000
    endloop
  endfacet
  facet normal -0.980785 -0.195090 0.000000
    outer loop
      vertex -0.923880 -0.382683 -1.000000
      vertex -0.923880 -0.382683 1.000000
      vertex -1.000000 0.000000 1.000000
    endloop
  endfacet
  facet normal 0.000000 0.000000 -1.000000
    outer loop
      vertex -1.000000 0.000000 -1.000000
      vertex 0.000000 0.000000 -1.000000
      vertex -0.923880 -0.382683 -1.000000
    endloop
  endfacet
  facet normal 0.000000 0.000000 1.000000
    outer loop
      vertex -1.000000 0.000000 1.000000
      vertex -0.923880 -0.382683 1.000000
      vertex 0.000000 0.000000 1.000000
    endloop
  endfacet
  facet normal -0.831470 -0.555570 0.000000
    outer loop
      vertex -0.923880 -0.382683 -1.000000
      vertex -0.707107 -0.707107 -1.000000
      vertex -0.923880 -0.382683 1.000000
    endloop
  endfacet
  facet normal -0.831470 -0.555570 0.000000
    outer loop
      vertex -0.707107 -0.707107 -1.000000
      vertex -0.707107 -0.707107 1.000000
      vertex -0.923880 -0.382683 1.000000
    endloop
  endfacet
  facet normal 0.000000 0.000000 -1.000000
    outer loop
      vertex -0.923880 -0.382683 -1.000000
      vertex 0.000000 0.000000 -1.000000
      vertex -0.707107 -0.707107 -1.000000
    endloop
  endfacet
  facet normal -0.000000 0.000000 1.000000
    outer loop
      vertex -0.923880 -0.382683 1.000000
      vertex -0.707107 -0.707107 1.000000
      vertex 0.000000 0.000000 1.000000
    endloop
  endfacet
  facet normal -0.555570 -0.831470 0.000000
    outer loop
      vertex -0.707107 -0.707107 -1.000000
      vertex -0.382683 -0.923880 -1.000000
      vertex -0.707107 -0.707107 1.000000
    endloop
  endfacet
  facet normal -0.555570 -0.831470 0.000000
    outer loop
      vertex -0.382683 -0.923880 -1.000000
      vertex -0.382683 -0.923880 1.000000
      vertex -0.707107 -0.707107 1.000000
    endloop
  endfacet
  facet normal 0.000000 0.000000 -1.000000
    outer loop
      vertex -0.707107 -0.707107 -1.000000
      vertex 0.000000 0.000000 -1.000000
      vertex -0.382683 -0.923880 -1.000000
    endloop
  endfacet
  facet normal -0.000000 0.000000 1.000000
    outer loop
      vertex -0.707107 -0.707107 1.000000
      vertex -0.382683 -0.923880 1.000000
      vertex 0.000000 0.000000 1.000000
    endloop
  endfacet
  facet normal -0.195090 -0.980785 0.000000
    outer loop
      vertex -0.382683 -0.923880 -1.000000
      vertex -0.000000 -1.000000 -1.000000
      vertex -0.382683 -0.923880 1.000000
    endloop
  endfacet
  facet normal -0.195090 -0.980785 0.000000
    outer loop
      vertex -0.000000 -1.000000 -1.000000
      vertex -0.000000 -1.000000 1.000000
      vertex -0.382683 -0.923880 1.000000
    endloop
  endfacet
  facet normal 0.000000 0.000000 -1.000000
    outer loop
      vertex -0.382683 -0.923880 -1.000000
      vertex 0.000000 0.000000 -1.000000
      vertex -0.000000 -1.000000 -1.000000
    endloop
  endfacet
  facet normal -0.000000 0.000000 1.000000
    outer loop
      vertex -0.382683 -0.923880 1.000000
      vertex -0.000000 -1.000000 1.000000
      vertex 0.000000 0.000000 1.000000
    endloop
  endfacet
  facet normal 0.195090 -0.980785 0.000000
    outer loop
      vertex -0.000000 -1.000000 -1.000000
      vertex 0.382683 -0.923880 -1.000000
      vertex -0.000000 -1.000000 1.000000
    endloop
  endfacet
  facet normal 0.195090 -0.980785 0.000000
    outer loop
      vertex 0.382683 -0.923880 -1.000000
      vertex 0.382683 -0.923880 1.000000
      vertex -0.000000 -1.000000 1.000000
    endloop
  endfacet
  facet normal 0.000000 0.000000 -1.000000
    outer loop
      vertex -0.000000 -1.000000 -1.000000
      vertex 0.000000 0.000000 -1.000000
      vertex 0.382683 -0.923880 -1.000000
    endloop
  endfacet
  facet normal 0.000000 0.000000 1.000000
    outer loop
      vertex -0.000000 -1.000000 1.000000
      vertex 0.382683 -0.923880 1.000000
      vertex 0.000000 0.000000 1.000000
    endloop
  endfacet
  facet normal 0.555570 -0.831470 0.000000
    outer loop
      vertex 0.382683 -0.923880 -1.000000
      vertex 0.707107 -0.707107 -1.000000
      vertex 0.382683 -0.923880 1.000000
    endloop
  endfacet
  facet normal 0.555570 -0.831470 0.000000
    outer loop
      vertex 0.707107 -0.707107 -1.000000
      vertex 0.707107 -0.707107 1.000000
      vertex 0.382683 -0.923880 1.000000
    endloop
  endfacet
  facet normal 0.000000 0.000000 -1.000000
    outer loop
      vertex 0.382683 -0.923880 -1.000000
      vertex 0.000000 0.000000 -1.000000
      vertex 0.707107 -0.707107 -1.000000
    endloop
  endfacet
  facet normal 0.000000 -0.000000 1.000000
    outer loop
      vertex 0.382683 -0.923880 1.000000
      vertex 0.707107 -0.707107 1.000000
      vertex 0.000000 0.000000 1.000000
    endloop
  endfacet
  facet normal 0.831470 -0.555570 0.000000
    outer loop
      vertex 0.707107 -0.707107 -1.000000
      vertex 0.923880 -0.382683 -1.000000
      vertex 0.707107 -0.707107 1.000000
    endloop
  endfacet
  facet normal 0.831470 -0.555570 0.000000
    outer loop
      vertex 0.923880 -0.382683 -1.000000
      vertex 0.923880 -0.382683 1.000000
      vertex 0.707107 -0.707107 1.000000
    endloop
  endfacet
  facet normal 0.000000 0.000000 -1.000000
    outer loop
      vertex 0.707107 -0.707107 -1.000000
      vertex 0.000000 0.000000 -1.000000
      vertex 0.923880 -0.382683 -1.000000
    endloop
  endfacet
  facet normal 0.000000 -0.000000 1.000000
    outer loop
      vertex 0.707107 -0.707107 1.000000
      vertex 0.923880 -0.382683 1.000000
      vertex 0.000000 0.000000 1.000000
    endloop
  endfacet
  facet normal 0.980785 -0.195090 0.000000
    outer loop
      vertex 0.923880 -0.382683 -1.000000
      vertex 1.000000 0.000000 -1.000000
      vertex 0.923880 -0.382683 1.000000
    endloop
  endfacet
  facet normal 0.980785 -0.195090 0.000000
    outer loop
      vertex 1.000000 0.000000 -1.000000
      vertex 1.000000 0.000000 1.000000
      vertex 0.923880 -0.382683 1.000000
    endloop
  endfacet
  facet normal 0.000000 0.000000 -1.000000
    outer loop
      vertex 0.923880 -0.382683 -1.000000
      vertex 0.000000 0.000000 -1.000000
      vertex 1.000000 0.000000 -1.000000
    endloop
  endfacet
  facet normal 0.000000 -0.000000 1.000000
    outer loop
      vertex 0.923880 -0.382683 1.000000
      vertex 1.000000 0.000000 1.000000
      vertex 0.000000 0.000000 1.000000
    endloop
  endfacet
endsolid cylinder_16
