solid lbracket
  facet normal 0.000000 -1.000000 0.000000
    outer loop
      vertex -2.000000 -0.250000 -0.500000
      vertex 2.000000 -0.250000 -0.500000
      vertex 1.800000 -0.250000 -0.300000
    endloop
  endfacet
  facet normal 0.000000 -1.000000 0.000000
    outer loop
      vertex -2.000000 -0.250000 -0.500000
      vertex 1.800000 -0.250000 -0.300000
      vertex -1.800000 -0.250000 -0.300000
    endloop
  endfacet
  facet normal -0.000000 -1.000000 0.000000
    outer loop
      vertex 2.000000 -0.250000 0.500000
      vertex -2.000000 -0.250000 0.500000
      vertex -1.800000 -0.250000 0.300000
    endloop
  endfacet
  facet normal 0.000000 -1.000000 0.000000
    outer loop
      vertex 2.000000 -0.250000 0.500000
      vertex -1.800000 -0.250000 0.300000
      vertex 1.800000 -0.250000 0.300000
    endloop
  endfacet
  facet normal 0.000000 0.000000 1.000000
    outer loop
      vertex -1.800000 -0.250000 -0.300000
      vertex 1.800000 -0.250000 -0.300000
      vertex 1.800000 0.250000 -0.300000
    endloop
  endfacet
  facet normal 0.000000 0.000000 1.000000
    outer loop
      vertex -1.800000 -0.250000 -0.300000
      vertex 1.800000 0.250000 -0.300000
      vertex -1.800000 0.250000 -0.300000
    endloop
  endfacet
  facet normal 0.000000 0.000000 -1.000000
    outer loop
      vertex -1.800000 -0.250000 0.300000
      vertex -1.800000 0.250000 0.300000
      vertex 1.800000 0.250000 0.300000
    endloop
  endfacet
  facet normal 0.000000 0.000000 -1.000000
    outer loop
      vertex -1.800000 -0.250000 0.300000
      vertex 1.800000 0.250000 0.300000
      vertex 1.800000 -0.250000 0.300000
    endloop
  endfacet
  facet normal 0.000000 0.000000 -1.000000
    outer loop
      vertex -2.000000 -0.250000 -0.500000
      vertex -2.000000 0.250000 -0.500000
      vertex 2.000000 0.250000 -0.500000
    endloop
  endfacet
  facet normal 0.000000 0.000000 -1.000000
    outer loop
      vertex -2.000000 -0.250000 -0.500000
      vertex 2.000000 0.250000 -0.500000
      vertex 2.000000 -0.250000 -0.500000
    endloop
  endfacet
  facet normal 1.000000 0.000000 0.000000
    outer loop
      vertex 2.000000 -0.250000 -0.500000
      vertex 2.000000 0.250000 -0.500000
      vertex 2.000000 0.250000 0.500000
    endloop
  endfacet
  facet normal 1.000000 0.000000 0.000000
    outer loop
      vertex 2.000000 -0.250000 -0.500000
      vertex 2.000000 0.250000 0.500000
      vertex 2.000000 -0.250000 0.500000
    endloop
  endfacet
  facet normal 0.000000 -0.000000 1.000000
    outer loop
      vertex 2.000000 -0.250000 0.500000
      vertex 2.000000 0.250000 0.500000
      vertex -2.000000 0.250000 0.500000
    endloop
  endfacet
  facet normal 0.000000 0.000000 1.000000
    outer loop
      vertex 2.000000 -0.250000 0.500000
      vertex -2.000000 0.250000 0.500000
      vertex -2.000000 -0.250000 0.500000
    endloop
  endfacet
  facet normal -1.000000 0.000000 0.000000
    outer loop
      vertex -2.000000 -0.250000 0.500000
      vertex -2.000000 0.250000 0.500000
      vertex -2.000000 0.250000 -0.500000
    endloop
  endfacet
  facet normal -1.000000 0.000000 0.000000
    outer loop
      vertex -2.000000 -0.250000 0.500000
      vertex -2.000000 0.250000 -0.500000
      vertex -2.000000 -0.250000 -0.500000
    endloop
  endfacet
  facet normal -0.707107 0.000000 0.707107
    outer loop
      vertex -1.800000 -0.250000 -0.300000
      vertex -1.800000 0.250000 -0.300000
      vertex -2.000000 0.250000 -0.500000
    endloop
  endfacet
  facet normal -0.707107 0.000000 -0.707107
    outer loop
      vertex 1.800000 -0.250000 -0.300000
      vertex 1.800000 0.250000 -0.300000
      vertex 2.000000 0.250000 -0.500000
    endloop
  endfacet
  facet normal 0.707107 0.000000 -0.707107
    outer loop
      vertex 1.800000 -0.250000 0.300000
      vertex 1.800000 0.250000 0.300000
      vertex 2.000000 0.250000 0.500000
    endloop
  endfacet
  facet normal 0.707107 -0.000000 0.707107
    outer loop
      vertex -1.800000 -0.250000 0.300000
      vertex -1.800000 0.250000 0.300000
      vertex -2.000000 0.250000 0.500000
    endloop
  endfacet
  facet normal 0.707107 -0.000000 0.707107
    outer loop
      vertex 1.800000 -0.250000 -0.300000
      vertex 2.000000 0.250000 -0.500000
      vertex 1.800000 0.250000 -0.300000
    endloop
  endfacet
  facet normal -0.707107 0.000000 0.707107
    outer loop
      vertex 1.800000 -0.250000 0.300000
      vertex 2.000000 0.250000 0.500000
      vertex 1.800000 0.250000 0.300000
    endloop
  endfacet
  facet normal -0.707107 0.000000 0.707107
    outer loop
      vertex -1.800000 0.250000 -0.300000
      vertex -2.000000 0.250000 -0.500000
      vertex -2.000000 -0.250000 -0.500000
    endloop
  endfacet
  facet normal -0.707107 0.000000 0.707107
    outer loop
      vertex -1.800000 0.250000 -0.300000
      vertex -2.000000 -0.250000 -0.500000
      vertex -1.800000 -0.250000 -0.300000
    endloop
  endfacet
  facet normal -0.707107 0.000000 -0.707107
    outer loop
      vertex 1.800000 0.250000 -0.300000
      vertex 2.000000 0.250000 -0.500000
      vertex 2.000000 -0.250000 -0.500000
    endloop
  endfacet
  facet normal -0.707107 -0.000000 -0.707107
    outer loop
      vertex 1.800000 0.250000 -0.300000
      vertex 2.000000 -0.250000 -0.500000
      vertex 1.800000 -0.250000 -0.300000
    endloop
  endfacet
  facet normal 0.707107 0.000000 -0.707107
    outer loop
      vertex 1.800000 0.250000 0.300000
      vertex 2.000000 0.250000 0.500000
      vertex 2.000000 -0.250000 0.500000
    endloop
  endfacet
  facet normal 0.707107 0.000000 -0.707107
    outer loop
      vertex 1.800000 0.250000 0.300000
      vertex 2.000000 -0.250000 0.500000
      vertex 1.800000 -0.250000 0.300000
    endloop
  endfacet
  facet normal 0.707107 0.000000 0.707107
    outer loop
      vertex -1.800000 0.250000 0.300000
      vertex -2.000000 0.250000 0.500000
      vertex -2.000000 -0.250000 0.500000
    endloop
  endfacet
  facet normal 0.707107 0.000000 0.707107
    outer loop
      vertex -1.800000 0.250000 0.300000
      vertex -2.000000 -0.250000 0.500000
      vertex -1.800000 -0.250000 0.300000
    endloop
  endfacet
  facet normal 0.000000 -1.000000 0.000000
    outer loop
      vertex -2.000000 0.250000 -0.500000
      vertex -1.800000 0.250000 -0.300000
      vertex -1.800000 0.250000 0.300000
    endloop
  endfacet
  facet normal 0.000000 -1.000000 0.000000
    outer loop
      vertex -2.000000 0.250000 -0.500000
      vertex -1.800000 0.250000 0.300000
      vertex -2.000000 0.250000 0.500000
    endloop
  endfacet
  facet normal 0.000000 -1.000000 0.000000
    outer loop
      vertex -1.800000 0.250000 -0.300000
      vertex 1.800000 0.250000 -0.300000
      vertex 1.800000 0.250000 0.300000
    endloop
  endfacet
  facet normal 0.000000 -1.000000 0.000000
    outer loop
      vertex -1.800000 0.250000 -0.300000
      vertex 1.800000 0.250000 0.300000
      vertex -1.800000 0.250000 0.300000
    endloop
  endfacet
endsolid lbracket
